<?xml version="1.0" encoding="UTF-8"?>
<svg id="Calque_1" xmlns="http://www.w3.org/2000/svg" viewBox="0 0 91.88 356.78">
  <defs>
    <style>
      .cls-1 {
        fill: #a6aaa9;
      }

      .cls-2 {
        fill: #f9fafc;
      }

      .cls-3 {
        fill: #c6ad86;
      }

      .cls-4 {
        fill: #f4f4f6;
      }

      .cls-5 {
        fill: #a4a4a4;
      }

      .cls-6 {
        fill: #dcdcdc;
      }

      .cls-7 {
        fill: #808181;
      }

      .cls-8 {
        fill: #e1e1e1;
      }
    </style>
  </defs>
  <rect class="cls-7" x="23.39" y="184.56" width="23.4" height="34.87"/>
  <rect class="cls-3" x="46.78" y="172.7" width="22.45" height="56.86"/>
  <rect class="cls-1" x="23.39" y="219.43" width="10.46" height="34.2"/>
  <rect class="cls-7" x="16.51" y="253.63" width="12.93" height="90.96"/>
  <rect class="cls-7" x="33.84" y="253.63" width="12.94" height="90.96"/>
  <rect class="cls-7" x="56.3" y="253.63" width="12.94" height="90.96"/>
  <rect class="cls-7" x="75.38" y="253.63" width="12.94" height="90.96"/>
  <polygon class="cls-5" points="79.73 344.59 79.73 356.59 26.44 356.59 26.44 344.59 29.44 344.59 29.44 253.63 33.84 253.63 33.84 344.59 69.23 344.59 69.23 253.63 75.38 253.63 75.38 344.59 79.73 344.59"/>
  <rect class="cls-7" x="23.39" y="344.59" width="3.05" height="12"/>
  <rect class="cls-5" x="33.9" y="172.7" width="12.89" height="11.86"/>
  <rect class="cls-5" x="33.84" y="219.43" width="12.94" height="10.12"/>
  <polygon class="cls-1" points="91.88 97.84 91.88 121.46 79.73 121.46 79.73 253.63 69.23 253.63 69.23 45.15 56.89 45.15 56.89 34.65 33.9 34.65 33.9 184.56 23.39 184.56 23.39 80.4 11.62 80.4 11.62 74.59 -.38 74.59 -.38 51.53 11.62 51.53 11.62 46.46 23.39 46.46 23.39 0 33.9 0 33.9 11.8 44.4 11.8 44.4 24.15 68.31 24.15 68.31 34.65 79.73 34.65 79.73 97.84 91.88 97.84"/>
  <rect class="cls-4" x="33.9" y="34.65" width="12.89" height="138.04"/>
  <rect class="cls-7" x="56.81" y="57.53" width="12.42" height="23.44"/>
  <polygon class="cls-6" points="69.23 45.15 69.23 172.69 46.78 172.69 46.78 34.65 56.89 34.65 56.89 45.15 69.23 45.15"/>
  <rect class="cls-2" x="33.84" y="229.56" width="11.91" height="24.07"/>
  <polygon class="cls-8" points="69.24 229.56 69.24 253.63 56.3 253.63 56.3 344.59 45.75 344.59 45.75 229.56 69.24 229.56"/>
  <rect class="cls-3" x="11.25" y="91.84" width="12.14" height="24.94"/>
</svg>